<svg width="11" height="8" viewBox="0 0 11 8" fill="none" xmlns="http://www.w3.org/2000/svg">
<path d="M9.33704 0.534231L3.57962 6.29123C3.54091 6.33009 3.49491 6.36093 3.44425 6.38197C3.3936 6.40301 3.33929 6.41384 3.28444 6.41384C3.22959 6.41384 3.17527 6.40301 3.12462 6.38197C3.07396 6.36093 3.02796 6.33009 2.98925 6.29123L0.76278 4.06268C0.724071 4.02381 0.678069 3.99298 0.627414 3.97194C0.57676 3.9509 0.522448 3.94007 0.467597 3.94007C0.412746 3.94007 0.358435 3.9509 0.30778 3.97194C0.257125 3.99298 0.211123 4.02381 0.172415 4.06268V4.06268C0.133553 4.10138 0.102717 4.14739 0.0816762 4.19804C0.0606357 4.2487 0.0498047 4.30301 0.0498047 4.35786C0.0498047 4.41271 0.0606357 4.46702 0.0816762 4.51768C0.102717 4.56833 0.133553 4.61433 0.172415 4.65304L2.39972 6.87993C2.63468 7.11445 2.95309 7.24617 3.28506 7.24617C3.61703 7.24617 3.93544 7.11445 4.1704 6.87993L9.9274 1.12418C9.9662 1.08548 9.99699 1.0395 10.018 0.988886C10.039 0.93827 10.0498 0.884007 10.0498 0.829205C10.0498 0.774404 10.039 0.720141 10.018 0.669525C9.99699 0.618908 9.9662 0.572933 9.9274 0.534231C9.88869 0.495369 9.84269 0.464533 9.79204 0.443493C9.74138 0.422452 9.68707 0.411621 9.63222 0.411621C9.57737 0.411621 9.52306 0.422452 9.4724 0.443493C9.42175 0.464533 9.37575 0.495369 9.33704 0.534231Z" fill="white"/>
</svg>
