<svg width="79" height="37" viewBox="0 0 79 37" fill="none" xmlns="http://www.w3.org/2000/svg">
<path d="M2.09229 35.8822C0.700179 35.8822 0.00268412 35.1344 0.00268412 34.0416C-0.0101718 33.7738 0.0232217 33.5057 0.1014 33.2492L8.41081 2.16218C8.55623 1.643 8.86892 1.18629 9.3004 0.862883C9.73188 0.539475 10.258 0.367439 10.7973 0.373454C11.1119 0.36267 11.4255 0.414999 11.7196 0.527353C12.0137 0.639707 12.2823 0.80981 12.5096 1.02763C12.7369 1.24545 12.9182 1.50656 13.0429 1.79558C13.1676 2.0846 13.2331 2.39565 13.2356 2.7104C13.2272 2.94518 13.1941 3.17843 13.1369 3.4063L5.67343 31.3027H12.0907C12.6975 31.3027 13.2795 31.5437 13.7086 31.9727C14.1377 32.4017 14.3788 32.9836 14.3788 33.5903C14.3788 34.197 14.1377 34.7789 13.7086 35.2079C13.2795 35.6369 12.6975 35.8779 12.0907 35.8779L2.09229 35.8822Z" fill="#3300FF"/>
<path d="M33.9782 17.4813C33.9591 19.0377 33.7755 20.5877 33.4306 22.1055C33.0328 23.9958 32.0385 24.3438 30.5945 24.3438H20.6458C20.3666 25.5508 20.2169 26.7841 20.1991 28.0228C20.1991 30.3122 20.7964 32.3509 22.7361 32.3509C24.2788 32.3509 25.529 31.3568 26.764 29.1675C26.9307 28.8038 27.1965 28.4943 27.5308 28.2744C27.8652 28.0545 28.2546 27.9331 28.6547 27.9241C29.1731 27.9228 29.6714 28.1243 30.0432 28.4854C30.4149 28.8466 30.6306 29.3388 30.6442 29.8569C30.6457 30.2802 30.5248 30.695 30.2962 31.0513C28.3622 34.4321 25.4216 36.3721 22.2375 36.3721C17.1648 36.3721 15.4722 32.6434 15.4722 28.1669C15.5029 26.2055 15.7538 24.2537 16.2202 22.3483C18.2651 14.0487 22.4371 9.62402 27.3124 9.62402C32.2294 9.62402 33.9782 13.0459 33.9782 17.4813ZM21.344 21.2612H29.0539C29.2637 20.1442 29.3801 19.0117 29.402 17.8754C29.402 15.4887 28.7578 13.6481 26.916 13.6481C24.6233 13.651 22.6374 16.4375 21.344 21.2612Z" fill="#3300FF"/>
<path d="M51.5372 17.4812C51.5189 19.0375 51.3361 20.5875 50.9918 22.1054C50.5919 23.9957 49.5975 24.3436 48.1557 24.3436H38.207C37.9268 25.5505 37.777 26.7839 37.7603 28.0227C37.7603 30.3121 38.3554 32.3508 40.2952 32.3508C41.8379 32.3508 43.088 31.3566 44.3252 29.1674C44.4917 28.8035 44.7574 28.4939 45.0918 28.274C45.4262 28.054 45.8158 27.9328 46.216 27.924C46.7343 27.9227 47.2326 28.1241 47.6044 28.4853C47.9762 28.8465 48.1919 29.3387 48.2054 29.8568C48.2069 30.2801 48.0861 30.6949 47.8574 31.0512C45.9241 34.432 42.9828 36.3713 39.7987 36.3713C34.7239 36.3713 33.0334 32.6425 33.0334 28.166C33.0645 26.2048 33.3146 24.2531 33.7792 22.3474C35.8205 14.0413 39.999 9.6167 44.8757 9.6167C49.7971 9.6239 51.5372 13.0465 51.5372 17.4812ZM38.9031 21.2589H46.6231C46.8328 20.1419 46.9492 19.0094 46.9711 17.8731C46.9711 15.4864 46.3262 13.6458 44.483 13.6458C42.1859 13.6509 40.1965 16.4374 38.9031 21.2589Z" fill="#3300FF"/>
<path d="M63.0288 10.1701C63.5458 10.196 64.033 10.4195 64.3898 10.7945C64.7465 11.1695 64.9455 11.6672 64.9455 12.1847C64.9455 12.7022 64.7465 13.1999 64.3898 13.5749C64.033 13.9499 63.5458 14.1734 63.0288 14.1993H60.8397L55.4687 34.3399C55.3554 34.8446 55.0701 35.2941 54.6617 35.6115C54.2532 35.9289 53.7471 36.0944 53.23 36.0797C52.921 36.102 52.6108 36.061 52.3183 35.9591C52.0257 35.8573 51.7571 35.6968 51.5288 35.4875C51.3005 35.2782 51.1173 35.0245 50.9906 34.742C50.8638 34.4594 50.7961 34.1539 50.7916 33.8443C50.8003 33.5932 50.8334 33.3434 50.8903 33.0987L55.9155 14.1971C55.3983 14.1656 54.913 13.9364 54.5602 13.5569C54.2075 13.1775 54.0143 12.6769 54.0207 12.1588C54.0271 11.6408 54.2326 11.1451 54.5946 10.7745C54.9566 10.4038 55.4474 10.1867 55.9652 10.168H57.0093L58.552 4.29966C58.7013 3.7865 59.0167 3.33734 59.4486 3.02252C59.8806 2.70771 60.4048 2.54501 60.9392 2.55991C61.2393 2.53815 61.5407 2.57869 61.8244 2.67898C62.1081 2.77927 62.3679 2.93715 62.5877 3.14269C62.8074 3.34823 62.9822 3.59699 63.1012 3.87333C63.2201 4.14967 63.2806 4.44762 63.2788 4.74846C63.2918 5.01647 63.2577 5.28468 63.1779 5.54089L61.9364 10.1651L63.0288 10.1701Z" fill="#3300FF"/>
<path d="M60.5879 29.864C60.5449 29.5399 60.5721 29.2104 60.6678 28.8978C60.7634 28.5852 60.9253 28.2968 61.1423 28.0523C61.3594 27.8077 61.6265 27.6128 61.9256 27.4806C62.2247 27.3485 62.5487 27.2823 62.8757 27.2865C63.4356 27.2695 63.9796 27.4741 64.3895 27.8558C64.7994 28.2376 65.042 28.7656 65.0647 29.3252C65.2153 31.0671 65.9604 32.3602 67.9008 32.3602C68.3298 32.3709 68.7565 32.2953 69.1557 32.138C69.5548 31.9807 69.9183 31.7447 70.2245 31.4443C70.5307 31.1438 70.7734 30.7848 70.9381 30.3888C71.1029 29.9927 71.1864 29.5675 71.1837 29.1386C71.1837 25.309 64.27 22.7228 64.27 17.0526C64.27 13.5227 66.8481 9.75 72.0793 9.75C76.8054 9.75 78.5463 12.4875 78.8943 15.4699C78.9395 15.7916 78.9158 16.1191 78.8247 16.4309C78.7336 16.7427 78.5773 17.0316 78.3661 17.2784C78.1549 17.5252 77.8936 17.7243 77.5995 17.8625C77.3055 18.0007 76.9854 18.0748 76.6606 18.0799C76.1256 18.0729 75.613 17.8641 75.2255 17.4952C74.838 17.1264 74.6042 16.6248 74.571 16.0909C74.3714 14.8965 73.7741 13.5544 71.9929 13.5544C71.5894 13.5654 71.1922 13.6572 70.8248 13.8242C70.4573 13.9913 70.1271 14.2302 69.8535 14.5269C69.58 14.8236 69.3687 15.1722 69.232 15.5519C69.0954 15.9316 69.0362 16.3348 69.058 16.7378C69.058 20.7158 76.0705 23.0527 76.0705 28.7229C76.0705 32.4019 73.3324 36.331 67.8144 36.331C62.4809 36.3288 60.7904 33.247 60.5879 29.864Z" fill="#3300FF"/>
</svg>
