<svg width="79" height="36" viewBox="0 0 79 36" fill="none" xmlns="http://www.w3.org/2000/svg">
<path d="M2.09229 35.5101C0.700179 35.5101 0.00268412 34.7624 0.00268412 33.6695C-0.0101718 33.4017 0.0232217 33.1336 0.1014 32.8771L8.41081 1.79011C8.55623 1.27093 8.86892 0.814221 9.3004 0.490813C9.73188 0.167404 10.258 -0.00463164 10.7973 0.00138394C11.1119 -0.00940015 11.4255 0.0429284 11.7196 0.155282C12.0137 0.267637 12.2823 0.43774 12.5096 0.655558C12.7369 0.873375 12.9182 1.13449 13.0429 1.42351C13.1676 1.71252 13.2331 2.02358 13.2356 2.33833C13.2272 2.57311 13.1941 2.80636 13.1369 3.03423L5.67343 30.9306H12.0907C12.6975 30.9306 13.2795 31.1716 13.7086 31.6006C14.1377 32.0296 14.3788 32.6115 14.3788 33.2182C14.3788 33.8249 14.1377 34.4068 13.7086 34.8358C13.2795 35.2648 12.6975 35.5058 12.0907 35.5058L2.09229 35.5101Z" fill="white"/>
<path d="M33.9786 17.1093C33.9595 18.6656 33.776 20.2156 33.431 21.7334C33.0332 23.6237 32.0389 23.9717 30.5949 23.9717H20.6462C20.3671 25.1787 20.2173 26.412 20.1995 27.6507C20.1995 29.9401 20.7968 31.9788 22.7365 31.9788C24.2793 31.9788 25.5294 30.9847 26.7644 28.7954C26.9312 28.4317 27.1969 28.1222 27.5312 27.9023C27.8656 27.6825 28.2551 27.5611 28.6552 27.552C29.1735 27.5507 29.6719 27.7522 30.0436 28.1134C30.4154 28.4745 30.6311 28.9668 30.6446 29.4848C30.6461 29.9082 30.5253 30.3229 30.2966 30.6792C28.3626 34.06 25.422 36 22.2379 36C17.1652 36 15.4727 32.2713 15.4727 27.7948C15.5033 25.8334 15.7542 23.8816 16.2206 21.9762C18.2655 13.6766 22.4375 9.25195 27.3128 9.25195C32.2298 9.25195 33.9786 12.6738 33.9786 17.1093ZM21.3444 20.8891H29.0544C29.2641 19.7721 29.3805 18.6396 29.4024 17.5033C29.4024 15.1166 28.7582 13.2761 26.9165 13.2761C24.6237 13.2789 22.6378 16.0654 21.3444 20.8891Z" fill="white"/>
<path d="M51.537 17.1091C51.5187 18.6654 51.3358 20.2154 50.9915 21.7333C50.5916 23.6236 49.5973 23.9716 48.1554 23.9716H38.2068C37.9266 25.1784 37.7768 26.4118 37.76 27.6506C37.76 29.94 38.3552 31.9787 40.2949 31.9787C41.8376 31.9787 43.0878 30.9846 44.325 28.7953C44.4915 28.4314 44.7572 28.1218 45.0916 27.9019C45.426 27.682 45.8156 27.5607 46.2157 27.5519C46.7341 27.5506 47.2324 27.7521 47.6042 28.1132C47.9759 28.4744 48.1916 28.9666 48.2052 29.4847C48.2067 29.9081 48.0858 30.3228 47.8571 30.6791C45.9239 34.0599 42.9826 35.9992 39.7985 35.9992C34.7236 35.9992 33.0332 32.2705 33.0332 27.794C33.0643 25.8327 33.3144 23.8811 33.779 21.9754C35.8203 13.6693 39.9988 9.24463 44.8755 9.24463C49.7969 9.25183 51.537 12.6744 51.537 17.1091ZM38.9028 20.8869H46.6228C46.8326 19.7698 46.949 18.6373 46.9708 17.501C46.9708 15.1144 46.326 13.2738 44.4828 13.2738C42.1857 13.2788 40.1962 16.0653 38.9028 20.8869Z" fill="white"/>
<path d="M63.0291 9.79805C63.5461 9.82391 64.0334 10.0475 64.3901 10.4224C64.7469 10.7974 64.9458 11.2951 64.9458 11.8126C64.9458 12.3301 64.7469 12.8278 64.3901 13.2028C64.0334 13.5778 63.5461 13.8013 63.0291 13.8272H60.8401L55.4691 33.9679C55.3558 34.4725 55.0705 34.922 54.662 35.2394C54.2536 35.5568 53.7474 35.7223 53.2303 35.7076C52.9214 35.7299 52.6112 35.6889 52.3186 35.5871C52.0261 35.4852 51.7574 35.3248 51.5291 35.1155C51.3008 34.9062 51.1177 34.6525 50.9909 34.3699C50.8642 34.0873 50.7965 33.7819 50.792 33.4722C50.8007 33.2211 50.8337 32.9714 50.8907 32.7266L55.9158 13.825C55.3986 13.7936 54.9134 13.5643 54.5606 13.1849C54.2079 12.8054 54.0147 12.3048 54.021 11.7868C54.0274 11.2688 54.2329 10.7731 54.5949 10.4024C54.957 10.0318 55.4477 9.81459 55.9656 9.79588H57.0097L58.5523 3.92759C58.7017 3.41442 59.017 2.96527 59.449 2.65045C59.881 2.33564 60.4052 2.17294 60.9395 2.18784C61.2397 2.16608 61.541 2.20662 61.8247 2.30691C62.1084 2.4072 62.3683 2.56508 62.588 2.77062C62.8078 2.97616 62.9826 3.22492 63.1015 3.50126C63.2205 3.7776 63.281 4.07555 63.2792 4.37639C63.2922 4.6444 63.258 4.91261 63.1783 5.16882L61.9368 9.793L63.0291 9.79805Z" fill="white"/>
<path d="M60.5882 29.4919C60.5451 29.1679 60.5724 28.8383 60.668 28.5257C60.7637 28.2131 60.9256 27.9247 61.1426 27.6802C61.3596 27.4357 61.6268 27.2407 61.9259 27.1086C62.2249 26.9764 62.549 26.9102 62.876 26.9144C63.4359 26.8974 63.9799 27.102 64.3897 27.4838C64.7996 27.8655 65.0423 28.3935 65.065 28.9531C65.2156 30.695 65.9606 31.9881 67.9011 31.9881C68.33 31.9988 68.7567 31.9233 69.1559 31.7659C69.5551 31.6086 69.9185 31.3727 70.2247 31.0722C70.5309 30.7717 70.7736 30.4128 70.9384 30.0167C71.1032 29.6206 71.1867 29.1955 71.1839 28.7665C71.1839 24.9369 64.2702 22.3507 64.2702 16.6805C64.2702 13.1506 66.8483 9.37793 72.0796 9.37793C76.8057 9.37793 78.5465 12.1154 78.8946 15.0978C78.9397 15.4195 78.916 15.7471 78.8249 16.0589C78.7339 16.3707 78.5775 16.6595 78.3663 16.9063C78.1551 17.1532 77.8938 17.3522 77.5998 17.4904C77.3057 17.6286 76.9857 17.7027 76.6608 17.7078C76.1258 17.7008 75.6132 17.492 75.2257 17.1232C74.8382 16.7543 74.6045 16.2527 74.5712 15.7188C74.3716 14.5244 73.7743 13.1823 71.9931 13.1823C71.5896 13.1934 71.1924 13.2851 70.825 13.4522C70.4576 13.6192 70.1273 13.8581 69.8538 14.1548C69.5802 14.4516 69.3689 14.8001 69.2323 15.1798C69.0956 15.5595 69.0365 15.9628 69.0583 16.3657C69.0583 20.3437 76.0707 22.6807 76.0707 28.3508C76.0707 32.0299 73.3326 35.9589 67.8146 35.9589C62.4811 35.9567 60.7907 32.8749 60.5882 29.4919Z" fill="white"/>
</svg>
